Coordinates
version=1
nRows=29
nColumns=38
inDegrees=no

Units are S.I. units (second, meters, Newtons, ...)
If the header above contains a line with 'inDegrees', this indicates whether rotational values are in degrees (yes) or radians (no).

endheader
time	pelvis_tilt	pelvis_list	pelvis_rotation	pelvis_tx	pelvis_ty	pelvis_tz	hip_flexion_r	hip_adduction_r	hip_rotation_r	knee_angle_r	ankle_angle_r	subtalar_angle_r	mtp_angle_r	hip_flexion_l	hip_adduction_l	hip_rotation_l	knee_angle_l	ankle_angle_l	subtalar_angle_l	mtp_angle_l	lumbar_extension	lumbar_bending	lumbar_rotation	arm_flex_r	arm_add_r	arm_rot_r	elbow_flex_r	pro_sup_r	wrist_flex_r	wrist_dev_r	arm_flex_l	arm_add_l	arm_rot_l	elbow_flex_l	pro_sup_l	wrist_flex_l	wrist_dev_l
0.93	-0.130073	-0.0102892	0.035336	0.697434	0.961184	-0.319934	0.779419	-0.0757529	-0.117433	-1.73479	0.138417	0.000369651	0.0034702	0.222467	0.0157768	-0.114354	-0.732954	0.479147	0.030297	0.00968823	-0.083641	-0.0343808	-0.193079	-0.446469	-0.325603	0.0559853	1.34506	1.59261	0.0331994	-0.033171	-0.0788299	-0.550406	0.4355	1.92164	1.43184	-0.00715182	-0.00142931
0.94	-0.128119	-0.0205916	0.0309373	0.698486	0.967489	-0.319764	0.793846	-0.0646735	-0.125204	-1.66529	0.150452	0.000369651	0.0034702	0.166788	9.98894e-05	-0.122845	-0.687889	0.421445	0.030297	0.00968823	-0.0850906	-0.0190761	-0.200199	-0.466623	-0.334759	0.0571742	1.35878	1.57227	0.0331994	-0.033171	-0.0566064	-0.540044	0.433709	1.94666	1.42945	-0.00715182	-0.00142931
0.95	-0.126753	-0.0302769	0.0257378	0.700115	0.974456	-0.319532	0.801038	-0.053542	-0.132913	-1.58299	0.159187	0.000369651	0.0034702	0.112273	-0.0148053	-0.133897	-0.641228	0.352582	0.030297	0.00968823	-0.0848716	-0.0042447	-0.206137	-0.487386	-0.343216	0.0565772	1.37501	1.55312	0.0331994	-0.033171	-0.0393085	-0.530968	0.432576	1.9726	1.42457	-0.00715182	-0.00142931
0.96	-0.126329	-0.0387532	0.0198946	0.702202	0.981757	-0.319223	0.80157	-0.0421928	-0.139281	-1.48869	0.163744	0.000369651	0.0034702	0.0608656	-0.0282789	-0.147268	-0.595745	0.275478	0.030297	0.00968823	-0.0828881	0.00937502	-0.211007	-0.50831	-0.350434	0.053571	1.39251	1.5374	0.0331994	-0.033171	-0.0264835	-0.523709	0.432673	1.9988	1.4182	-0.00715182	-0.00142931
0.97	-0.127018	-0.0455466	0.0136539	0.704609	0.989071	-0.318831	0.795995	-0.0305983	-0.143524	-1.38336	0.163417	0.000369651	0.0034702	0.0141825	-0.039875	-0.162317	-0.554256	0.193985	0.030297	0.00968823	-0.0792595	0.0212117	-0.214969	-0.528962	-0.355966	0.047744	1.41029	1.52648	0.0331994	-0.033171	-0.0176155	-0.5186	0.434294	2.02461	1.41171	-0.00715182	-0.00142931
0.98	-0.128779	-0.050275	0.00731324	0.707197	0.996095	-0.31836	0.784862	-0.0190045	-0.145479	-1.26834	0.157779	0.000369651	0.0034702	-0.0266347	-0.0492978	-0.178091	-0.519408	0.112571	0.030297	0.00968823	-0.0742823	0.0308262	-0.218186	-0.548958	-0.359499	0.0389391	1.42762	1.52075	0.0331994	-0.033171	-0.0121505	-0.515754	0.437524	2.04936	1.40665	-0.00715182	-0.00142931
0.99	-0.1314	-0.0526318	0.00117649	0.709842	1.00255	-0.31784	0.768783	-0.00798026	-0.145637	-1.14558	0.146746	0.000369651	0.0034702	-0.0609802	-0.0563535	-0.193501	-0.493496	0.0357882	0.030297	0.00968823	-0.0683718	0.0378726	-0.220786	-0.567979	-0.360882	0.0272659	1.44402	1.51977	0.0331994	-0.033171	-0.00952234	-0.515078	0.442316	2.07233	1.40438	-0.00715182	-0.00142931
1	-0.134541	-0.0523901	-0.00449217	0.712451	1.0082	-0.317297	0.748536	0.00165004	-0.145065	-1.01782	0.130597	0.000369651	0.0034702	-0.0887406	-0.0609492	-0.207571	-0.478331	-0.0323899	0.030297	0.00968823	-0.0619921	0.0420955	-0.222818	-0.585771	-0.360132	0.0130865	1.45918	1.5224	0.0331994	-0.033171	-0.00919055	-0.516301	0.448553	2.09276	1.40576	-0.00715182	-0.00142931
1.01	-0.13781	-0.0494467	-0.0095074	0.714975	1.01286	-0.316756	0.725152	0.00897809	-0.145203	-0.88869	0.109962	0.000369651	0.0034702	-0.110146	-0.0631502	-0.219669	-0.475211	-0.0891621	0.030297	0.00968823	-0.0555816	0.0433624	-0.224244	-0.602113	-0.357426	-0.00301408	1.47288	1.5271	0.0331994	-0.033171	-0.0106923	-0.519007	0.456061	2.10985	1.41096	-0.00715182	-0.00142931
1.02	-0.140841	-0.0438803	-0.0137872	0.717392	1.01641	-0.316244	0.69995	0.0132429	-0.147549	-0.76259	0.08577	0.000369651	0.0034702	-0.125574	-0.0632576	-0.229622	-0.484954	-0.133236	0.030297	0.00968823	-0.0495023	0.0417192	-0.224949	-0.61677	-0.353088	-0.0202664	1.48489	1.53218	0.0331994	-0.033171	-0.0136964	-0.522688	0.464574	2.12281	1.41949	-0.00715182	-0.00142931
1.03	-0.143369	-0.0359957	-0.0173557	0.719699	1.0188	-0.315794	0.674484	0.0140576	-0.153244	-0.644404	0.0592021	0.000369651	0.0034702	-0.135358	-0.0618587	-0.237677	-0.507973	-0.164808	0.030297	0.00968823	-0.0440192	0.0374399	-0.224785	-0.629427	-0.347566	-0.0377629	1.49494	1.53609	0.0331994	-0.033171	-0.0180385	-0.526789	0.473697	2.13094	1.43031	-0.00715182	-0.00142931
1.04	-0.145179	-0.0262766	-0.0203092	0.721892	1.02002	-0.315419	0.650388	0.0115923	-0.162694	-0.539019	0.0316471	0.000369651	0.0034702	-0.139686	-0.0598442	-0.244328	-0.544315	-0.185213	0.030297	0.00968823	-0.0392975	0.0311048	-0.223601	-0.639651	-0.341392	-0.0545333	1.50273	1.5376	0.0331994	-0.033171	-0.0237093	-0.530767	0.482889	2.13371	1.44212	-0.00715182	-0.00142931
1.05	-0.146198	-0.0154363	-0.0228167	0.723943	1.02012	-0.31511	0.629137	0.00656195	-0.175285	-0.450817	0.00469216	0.000369651	0.0034702	-0.138622	-0.0582916	-0.250086	-0.593664	-0.19643	0.030297	0.00968823	-0.0354757	0.0235317	-0.2213	-0.646895	-0.335151	-0.0696249	1.50787	1.53597	0.0331994	-0.033171	-0.0308184	-0.534136	0.491489	2.13078	1.45356	-0.00715182	-0.00142931
1.06	-0.146433	-0.00437902	-0.0250719	0.725809	1.01915	-0.314832	0.611864	9.60579e-05	-0.189343	-0.383249	-0.0198414	0.000369651	0.0034702	-0.132207	-0.0582607	-0.255275	-0.655276	-0.200588	0.030297	0.00968823	-0.0326828	0.0156701	-0.21786	-0.650548	-0.329437	-0.0821875	1.51001	1.53094	0.0331994	-0.033171	-0.0395476	-0.536501	0.498784	2.12207	1.46342	-0.00715182	-0.00142931
1.07	-0.145895	0.00597117	-0.0272662	0.727431	1.01718	-0.314536	0.599243	-0.00646873	-0.202417	-0.338587	-0.0398316	0.000369651	0.0034702	-0.120581	-0.0606157	-0.259924	-0.727928	-0.199596	0.030297	0.00968823	-0.0310454	0.00851216	-0.213324	-0.650034	-0.324817	-0.0915497	1.50887	1.52281	0.0331994	-0.033171	-0.050091	-0.537572	0.504101	2.10771	1.47076	-0.00715182	-0.00142931
1.08	-0.144595	0.0147535	-0.0295698	0.728766	1.01424	-0.314177	0.591459	-0.0118429	-0.211837	-0.317846	-0.0528276	0.000369651	0.0034702	-0.104055	-0.0658684	-0.263751	-0.809935	-0.194929	0.030297	0.00968823	-0.0307015	0.0029565	-0.207789	-0.644897	-0.321788	-0.0972638	1.50429	1.51236	0.0331994	-0.033171	-0.0625924	-0.537182	0.506901	2.088	1.47502	-0.00715182	-0.00142931
1.09	-0.142551	0.0213344	-0.0321044	0.729789	1.01036	-0.31373	0.588234	-0.0149671	-0.215424	-0.320767	-0.0561752	0.000369651	0.0034702	-0.0831033	-0.0741302	-0.26627	-0.899262	-0.187561	0.030297	0.00968823	-0.0318077	-0.000262487	-0.201357	-0.63485	-0.32071	-0.0991241	1.49626	1.5008	0.0331994	-0.033171	-0.0770661	-0.53529	0.506875	2.06337	1.47607	-0.00715182	-0.00142931
1.1	-0.139788	0.0253335	-0.0349233	0.730478	1.00558	-0.313208	0.588917	-0.0151468	-0.212134	-0.345772	-0.0474005	0.000369651	0.0034702	-0.0582035	-0.0851347	-0.266886	-0.993723	-0.178015	0.030297	0.00968823	-0.0344852	-0.000640931	-0.194111	-0.619786	-0.321762	-0.0971516	1.4849	1.48955	0.0331994	-0.033171	-0.0933449	-0.531995	0.503986	2.03435	1.47414	-0.00715182	-0.00142931
1.11	-0.136463	0.0266087	-0.0379797	0.730808	0.999941	-0.312665	0.592596	-0.0121038	-0.20241	-0.389932	-0.0248297	0.000369651	0.0034702	-0.0296021	-0.0983225	-0.264958	-1.09121	-0.166499	0.030297	0.00968823	-0.0387391	0.00208009	-0.18613	-0.599762	-0.324907	-0.0915485	1.47048	1.47997	0.0331994	-0.033171	-0.111088	-0.527513	0.498456	2.00149	1.46968	-0.00715182	-0.00142931
1.12	-0.132886	0.0252905	-0.0411063	0.730724	0.993569	-0.312186	0.598218	-0.00596451	-0.188019	-0.449103	0.0117958	0.000369651	0.0034702	0.00281109	-0.112906	-0.25986	-1.18982	-0.153093	0.030297	0.00968823	-0.0443887	0.00792518	-0.177508	-0.574975	-0.329905	-0.0826521	1.45341	1.47313	0.0331994	-0.033171	-0.129859	-0.522145	0.490685	1.96543	1.46331	-0.00715182	-0.00142931
1.13	-0.129453	0.0216403	-0.0440623	0.730163	0.986723	-0.311866	0.604665	0.0027463	-0.171479	-0.518221	0.0609772	0.000369651	0.0034702	0.0394747	-0.12789	-0.251062	-1.2878	-0.137904	0.030297	0.00968823	-0.0510541	0.0166243	-0.168369	-0.545756	-0.336348	-0.0709008	1.43425	1.46974	0.0331994	-0.033171	-0.149241	-0.516231	0.481132	1.92687	1.45574	-0.00715182	-0.00142931
1.14	-0.126616	0.016095	-0.0465666	0.729098	0.979727	-0.311775	0.610763	0.0132013	-0.155321	-0.591772	0.119601	0.000369651	0.0034702	0.0809621	-0.14213	-0.238226	-1.38353	-0.121174	0.030297	0.00968823	-0.0582324	0.0276323	-0.15888	-0.512598	-0.343711	-0.05682	1.41373	1.47014	0.0331994	-0.033171	-0.168945	-0.510104	0.47022	1.88667	1.44779	-0.00715182	-0.00142931
1.15	-0.124803	0.00927359	-0.0483442	0.727546	0.972912	-0.311943	0.615294	0.0243713	-0.141472	-0.664363	0.183567	0.000369651	0.0034702	0.127733	-0.154377	-0.221327	-1.47534	-0.103298	0.030297	0.00968823	-0.0653895	0.0401315	-0.149234	-0.476199	-0.351411	-0.0410226	1.39283	1.47429	0.0331994	-0.033171	-0.188893	-0.504079	0.458269	1.84582	1.44032	-0.00715182	-0.00142931
1.16	-0.124324	0.00197848	-0.0491841	0.725513	0.966593	-0.312348	0.617014	0.0351478	-0.130943	-0.731228	0.248607	0.000369651	0.0034702	0.179885	-0.1634	-0.200749	-1.5615	-0.0847758	0.030297	0.00968823	-0.0720581	0.0530781	-0.139604	-0.437507	-0.358855	-0.0242225	1.37278	1.48186	0.0331994	-0.033171	-0.209236	-0.498461	0.445484	1.80559	1.4342	-0.00715182	-0.00142931
1.17	-0.125296	-0.00488179	-0.049015	0.723017	0.961031	-0.31294	0.614697	0.0444717	-0.123824	-0.788596	0.310978	0.000369651	0.0034702	0.236988	-0.168144	-0.177369	-1.6402	-0.0661255	0.030297	0.00968823	-0.077911	0.0652822	-0.130081	-0.397716	-0.36548	-0.00723621	1.3551	1.49235	0.0331994	-0.033171	-0.230312	-0.493563	0.431981	1.76739	1.43015	-0.00715182	-0.00142931
1.18	-0.127653	-0.0104353	-0.047956	0.720137	0.956429	-0.313658	0.607219	0.0514539	-0.119481	-0.833874	0.367801	0.000369651	0.0034702	0.298021	-0.167918	-0.152563	-1.70963	-0.0477956	0.030297	0.00968823	-0.0828059	0.0755194	-0.120601	-0.358206	-0.370791	0.0090549	1.34138	1.50512	0.0331994	-0.033171	-0.252571	-0.489712	0.417839	1.73274	1.42867	-0.00715182	-0.00142931
1.19	-0.131072	-0.0138922	-0.0463203	0.717031	0.952956	-0.314435	0.593687	0.0554814	-0.116845	-0.865646	0.417068	0.000369651	0.0034702	0.361471	-0.162547	-0.128094	-1.76808	-0.030111	0.030297	0.00968823	-0.0867324	0.0827081	-0.110925	-0.320408	-0.374397	0.0237936	1.33318	1.51952	0.0331994	-0.033171	-0.276463	-0.487219	0.403146	1.70307	1.42983	-0.00715182	-0.00142931
1.2	-0.135062	-0.0146618	-0.0445527	0.713889	0.95076	-0.315206	0.573562	0.0562326	-0.114747	-0.883551	0.457461	0.000369651	0.0034702	0.425537	-0.152405	-0.105882	-1.81406	-0.0132627	0.030297	0.00968823	-0.0897476	0.0860321	-0.100705	-0.285643	-0.376058	0.03627	1.33169	1.53495	0.0331994	-0.033171	-0.302349	-0.486326	0.388027	1.67952	1.43327	-0.00715182	-0.00142931
1.21	-0.139176	-0.0124159	-0.0431014	0.710897	0.949949	-0.315914	0.546703	0.0536349	-0.112216	-0.888097	0.488114	0.000369651	0.0034702	0.488354	-0.138336	-0.0877129	-1.84643	0.00266609	0.030297	0.00968823	-0.0919445	0.0850256	-0.0896034	-0.254973	-0.375717	0.0460392	1.33755	1.55089	0.0331994	-0.033171	-0.330444	-0.487137	0.372624	1.66282	1.43821	-0.00715182	-0.00142931
